<svg height="64" viewBox="0 0 64 64" width="64" xmlns="http://www.w3.org/2000/svg"><g fill="none" fill-rule="evenodd"><path d="m8.20251875 35.1083125h31.80018965c1.1057518 0 1.9972916-.8940894 1.9972916-1.9970047v-22.0059906c0-1.1020259-.8942179-1.9970047-1.9972916-1.9970047h-36.00541678c-1.10575179 0-1.99729162.8940894-1.99729162 1.9970047v22.448839 8.4458438z" fill="#e43535"/><path d="m8.20251875 34h31.80018965c1.1057518 0 1.9972916-.8940894 1.9972916-1.9970047v-22.00599064c0-1.10202581-.8942179-1.99700466-1.9972916-1.99700466h-36.00541678c-1.10575179 0-1.99729162.89408944-1.99729162 1.99700466v22.44883914 8.4458437z" fill="#e43535"/><path d="m30.2025188 50h31.8001896c1.1057518 0 1.9972916-.8940894 1.9972916-1.9970047v-22.0059906c0-1.1020258-.8942179-1.9970047-1.9972916-1.9970047h-36.0054168c-1.1057518 0-1.9972916.8940894-1.9972916 1.9970047v22.4488391 8.4458437z" fill="#5ea7ff" transform="matrix(-1 0 0 1 88 0)"/><g fill="#d8d8d8"><circle cx="37" cy="37" r="2"/><circle cx="15" cy="21" r="2"/><circle cx="44" cy="37" r="2"/><circle cx="22" cy="21" r="2"/><circle cx="51" cy="37" r="2"/><circle cx="29" cy="21" r="2"/></g></g></svg>