<svg fill="none" height="24" viewBox="0 0 24 24" width="24" xmlns="http://www.w3.org/2000/svg"><g clip-rule="evenodd" fill="#22202a" fill-rule="evenodd"><path d="m7.69179 6.85129c-.11623-.18482-.14497-.34274-.13483-.47176.01073-.13651.06808-.27636.17556-.40937.22351-.27662.62405-.47144 1.01733-.47015.27614.0009.50073-.22222.50163-.49836.00091-.27614-.22221-.50073-.49835-.50164-.68821-.00226-1.37918.32281-1.79842.84165-.2139.26472-.36575.5915-.39467.95952-.02925.37207.07006.75155.30262 1.10967l.0098.01508.01085.01434c.50324.66495 1.273 1.00741 2.01494 1.19428.74729.18821 1.53665.2357 2.15285.25809.2759.01003.5078-.20555.5178-.48151s-.2056-.5078-.4815-.51783c-.6063-.02203-1.30633-.06763-1.94492-.22847-.63619-.16023-1.1442-.41842-1.45069-.81354z"/><path d="m4.27302 9.33001c.27427-.03211.52264.1642.55475.43847.12729 1.08722.86073 2.45532 1.97192 3.24522.54635.3883 1.17045.6275 1.84937.6391.67668.0116 1.44744-.2021 2.29144-.7849.2272-.1569.5386-.0999.6955.1273.157.2272.1.5386-.1273.6955-.9899.6836-1.96187.9776-2.87676.962-.91264-.0156-1.72891-.3387-2.41161-.824-1.34692-.9574-2.22633-2.582-2.38577-3.94394-.03211-.27427.16419-.52264.43846-.55475z"/><path d="m3.72885 12.125c.27461-.0291.5208.1699.5499.4445.03781.3569.22528.9062.57385 1.4813.34494.5692.82391 1.124 1.40702 1.5147.57786.3872 1.25228.6107 2.01498.5422.76581-.0689 1.67417-.4371 2.7063-1.3307.2088-.1808.5245-.158.7053.0507.1807.2088.158.5246-.0508.7053-1.1482.9941-2.2469 1.4786-3.27128 1.5706-1.02748.0924-1.92634-.215-2.66116-.7074-.72958-.4889-1.30269-1.1624-1.70556-1.8271-.39925-.6588-.65532-1.349-.71308-1.8942-.0291-.2746.16992-.5208.44453-.5499z"/><path d="m3.58364 14.8471c.26904.0622.4367.3307.37448.5998-.36301 1.5696.51516 2.7758 1.81638 3.0107 1.31349.2372 3.28841-.4924 5.0214-3.3806.142-.2368.4492-.3136.686-.1715.2368.142.3135.4492.1715.686-1.8512 3.0852-4.17721 4.1895-6.05657 3.8502-1.89164-.3415-3.09822-2.122-2.613-4.2201.06223-.2691.33077-.4367.59981-.3745z"/><path d="m14.7748 4.98584c.0078-.27603.2379-.49346.514-.48564.6721.01905 1.3511.34335 1.7643.85801.211.26272.3611.58655.3889.95199.0281.36936-.0717.7453-.3025 1.10065l-.0098.01508-.0108.01433c-.5034.6651-1.2732 1.00721-2.0151 1.19387-.7471.18798-1.5365.23546-2.1521.25849-.276.01032-.508-.20501-.5184-.48096-.0103-.27595.205-.50802.481-.51834.6068-.0227 1.3068-.06826 1.9455-.22897.6363-.16009 1.1442-.41799 1.4506-.81307.1157-.18393.144-.33941.1344-.46525-.0101-.13315-.0657-.27006-.1714-.40174-.2201-.27415-.6184-.47331-1.0129-.48449-.2761-.00782-.4935-.23793-.4857-.51396z"/><path d="m18.764 7.05191c.2721.04663.455.30507.4084.57725-.2772 1.61768-1.0408 2.78074-2.1912 3.45214-1.1347.6622-2.5728.8035-4.1314.5406-.2723-.0459-.4558-.3039-.4098-.5762.0459-.2723.3039-.4558.5762-.4099 1.4162.2389 2.5945.0875 3.461-.4182.8507-.49642 1.4729-1.37627 1.7095-2.7573.0466-.27218.3051-.45502.5773-.40839z"/><path d="m5.22448 7.05224c.27199-.04768.53114.13416.57882.40616.2422 1.38161.8674 2.26221 1.72006 2.7591.86817.5059 2.04667.6572 3.46274.4183.2723-.0459.5303.1376.5762.4099.046.2723-.1375.5303-.4098.5762-1.55876.2629-2.99667.1215-4.13261-.5404-1.15146-.671-1.91809-1.83334-2.20157-3.45044-.04768-.27199.13417-.53114.40616-.57882z"/><path d="m19.7293 9.33001c.2743.03211.4706.28048.4385.55475-.1596 1.36324-1.046 2.98754-2.3952 3.94434-.6839.4849-1.5008.808-2.4123.8236-.9141.0157-1.8835-.2785-2.868-.9628-.2267-.1576-.2828-.4692-.1252-.696.1576-.2267.4692-.2828.696-.1251.8374.5821 1.6048.7956 2.2801.784.6777-.0116 1.3028-.2508 1.8509-.6395 1.1149-.7905 1.8533-2.159 1.9804-3.24482.0321-.27427.2805-.47058.5548-.43847z"/><path d="m20.2766 12.1254c.2744.0309.4718.2784.4409.5528-.0609.5414-.3129 1.2296-.7081 1.8888-.3983.6646-.9653 1.3388-1.6909 1.8283-.7312.4934-1.6275.8007-2.6568.7083-1.0254-.0919-2.1301-.5757-3.2924-1.5684-.21-.1793-.2348-.4949-.0555-.7049.1794-.21.495-.2348.705-.0555 1.0479.895 1.9638 1.2639 2.7322 1.3328.7647.0686 1.4357-.155 2.0082-.5412.5781-.3901 1.0513-.9442 1.3925-1.5135.3445-.5747.5315-1.126.5721-1.4866.0309-.2744.2784-.4718.5528-.4409z"/><path d="m20.4202 14.8467c.2692-.0614.5373.1071.5987.3764.4781 2.0968-.7275 3.877-2.6178 4.2186-1.8782.3394-4.2012-.7654-6.0521-3.8502-.1421-.2368-.0653-.544.1715-.686.2368-.1421.5439-.0653.686.1715 1.7332 2.8886 3.7052 3.6177 5.0168 3.3807 1.2996-.2349 2.1788-1.4415 1.8206-3.0123-.0614-.2693.1071-.5373.3763-.5987z"/><path d="m12.0012 5.34824c.2761 0 .5.22385.5.5v10.07136c0 .2761-.2239.5-.5.5-.2762 0-.5-.2239-.5-.5v-10.07136c0-.27615.2238-.5.5-.5z"/></g></svg>